<?xml version="1.0" encoding="utf-8"?>
<!-- Generator: Adobe Illustrator 17.0.0, SVG Export Plug-In . SVG Version: 6.00 Build 0)  -->
<!DOCTYPE svg PUBLIC "-//W3C//DTD SVG 1.1//EN" "http://www.w3.org/Graphics/SVG/1.1/DTD/svg11.dtd">
<svg version="1.1" id="图层_1" xmlns="http://www.w3.org/2000/svg" xmlns:xlink="http://www.w3.org/1999/xlink" x="0px" y="0px"
	 width="20px" height="20px" viewBox="0 0 20 20" enable-background="new 0 0 20 20" xml:space="preserve">
<g>
	<path stroke="#cdcdd8" d="M18.903,0H1.097c-0.465,0-0.84,0.376-0.84,0.84V19.16c0,0.465,0.376,0.84,0.84,0.84h17.807c0.465,0,0.84-0.376,0.84-0.84
		V0.84C19.744,0.376,19.368,0,18.903,0z M17.853,18.109H2.147v-4.286h15.706V18.109z M17.853,12.143H2.147V7.857h15.706V12.143z
		 M17.853,6.177H2.147V1.891h15.706V6.177z"/>
	<circle cx="14.845" cy="4.018" r="1.05"/>
	<circle cx="5.088" cy="10" r="1.05"/>
	<circle cx="5.088" cy="16.173" r="1.05"/>
</g>
</svg>
