<?xml version="1.0" encoding="utf-8"?>
<!-- Generator: Adobe Illustrator 17.0.0, SVG Export Plug-In . SVG Version: 6.00 Build 0)  -->
<!DOCTYPE svg PUBLIC "-//W3C//DTD SVG 1.1//EN" "http://www.w3.org/Graphics/SVG/1.1/DTD/svg11.dtd">
<svg version="1.1" id="图层_1" xmlns="http://www.w3.org/2000/svg" xmlns:xlink="http://www.w3.org/1999/xlink" x="0px" y="0px"
	 width="20px" height="20px" viewBox="0 0 20 20" enable-background="new 0 0 20 20" xml:space="preserve">
<g>
	<path stroke="#cdcdd8" d="M19.792,17.292H1.875V1.042c0-0.115-0.094-0.208-0.208-0.208H0.208C0.094,0.833,0,0.927,0,1.042v17.917
		c0,0.115,0.094,0.208,0.208,0.208h19.583c0.115,0,0.208-0.094,0.208-0.208V17.5C20,17.385,19.906,17.292,19.792,17.292
		L19.792,17.292z M19.792,17.292"/>
	<path stroke="#cdcdd8" d="M4.167,15.208h1.458c0.115,0,0.208-0.094,0.208-0.208v-3.75c0-0.115-0.094-0.208-0.208-0.208H4.167
		c-0.115,0-0.208,0.094-0.208,0.208V15C3.958,15.115,4.052,15.208,4.167,15.208L4.167,15.208z M8.125,15.208h1.458
		c0.115,0,0.208-0.094,0.208-0.208V6.667c0-0.115-0.094-0.208-0.208-0.208H8.125c-0.115,0-0.208,0.094-0.208,0.208V15
		C7.917,15.115,8.01,15.208,8.125,15.208L8.125,15.208z M12.083,15.208h1.458c0.115,0,0.208-0.094,0.208-0.208V8.698
		c0-0.115-0.094-0.208-0.208-0.208h-1.458c-0.115,0-0.208,0.094-0.208,0.208V15C11.875,15.115,11.969,15.208,12.083,15.208
		L12.083,15.208z M16.042,15.208H17.5c0.115,0,0.208-0.094,0.208-0.208V4.583c0-0.115-0.094-0.208-0.208-0.208h-1.458
		c-0.115,0-0.208,0.094-0.208,0.208V15C15.833,15.115,15.927,15.208,16.042,15.208L16.042,15.208z M16.042,15.208"/>
</g>
</svg>
