<?xml version="1.0" encoding="utf-8"?>
<!-- Generator: Adobe Illustrator 17.0.0, SVG Export Plug-In . SVG Version: 6.00 Build 0)  -->
<!DOCTYPE svg PUBLIC "-//W3C//DTD SVG 1.1//EN" "http://www.w3.org/Graphics/SVG/1.1/DTD/svg11.dtd">
<svg version="1.1" id="图层_1" xmlns="http://www.w3.org/2000/svg" xmlns:xlink="http://www.w3.org/1999/xlink" x="0px" y="0px"
	 width="20px" height="20px" viewBox="0 0 20 20" enable-background="new 0 0 20 20" xml:space="preserve">
<g>
	<path stroke="#cdcdd8" d="M19.202-0.002H0.798c-0.443,0-0.8,0.358-0.8,0.8v18.403c0,0.443,0.358,0.8,0.8,0.8h18.403c0.443,0,0.8-0.358,0.8-0.8V0.798
		C20.002,0.356,19.644-0.002,19.202-0.002z M18.201,18.201H1.798V1.799h16.403V18.201z"/>
	<path stroke="#cdcdd8" d="M5.699,14.276v1.925c0,0.11,0.09,0.2,0.2,0.2h1.2c0.11,0,0.2-0.09,0.2-0.2v-1.925c-0.253,0.083-0.52,0.125-0.8,0.125
		c0.28,0,0.548-0.045,0.8-0.125c1.045-0.338,1.8-1.318,1.8-2.475c0-1.158-0.755-2.138-1.8-2.476V3.799c0-0.11-0.09-0.2-0.2-0.2h-1.2
		c-0.11,0-0.2,0.09-0.2,0.2v5.526C5.952,9.242,6.219,9.2,6.499,9.2c-0.28,0-0.548,0.045-0.8,0.125c-1.045,0.338-1.8,1.318-1.8,2.476
		C3.899,12.958,4.654,13.938,5.699,14.276z M5.702,11.383c0.007-0.015,0.017-0.03,0.025-0.045v-0.003l0.03-0.045
		c0.003-0.005,0.005-0.008,0.008-0.013c0.008-0.012,0.017-0.022,0.025-0.035c0.002-0.003,0.005-0.008,0.008-0.01
		c0.013-0.015,0.022-0.028,0.035-0.04l0.047-0.047c0.012-0.013,0.025-0.023,0.04-0.035s0.027-0.023,0.042-0.033
		c0.005-0.003,0.007-0.005,0.012-0.008c0.013-0.007,0.023-0.017,0.035-0.025c0.002-0.003,0.007-0.005,0.01-0.008
		c0.015-0.01,0.03-0.017,0.047-0.027c0.002-0.003,0.007-0.003,0.01-0.005c0.013-0.007,0.025-0.012,0.04-0.02l0.015-0.007
		c0.018-0.008,0.033-0.015,0.05-0.02c0.017-0.008,0.035-0.013,0.052-0.018c0.005-0.002,0.01-0.002,0.015-0.005
		c0.015-0.005,0.027-0.008,0.042-0.01c0.005,0,0.008-0.003,0.013-0.003c0.017-0.005,0.037-0.007,0.055-0.01
		c0.005,0,0.008,0,0.013-0.002c0.015-0.003,0.03-0.003,0.045-0.005h0.015c0.02,0,0.037-0.003,0.057-0.003s0.037,0,0.057,0.003h0.015
		c0.015,0,0.03,0.002,0.045,0.005c0.005,0,0.007,0,0.012,0.002c0.017,0.003,0.037,0.005,0.055,0.01c0.005,0,0.007,0.003,0.012,0.003
		c0.015,0.002,0.03,0.007,0.042,0.01c0.005,0.002,0.01,0.002,0.015,0.005c0.017,0.005,0.035,0.01,0.052,0.018
		c0.017,0.005,0.032,0.012,0.05,0.02l0.015,0.007c0.012,0.005,0.027,0.013,0.04,0.02c0.003,0.002,0.008,0.002,0.01,0.005
		c0.015,0.007,0.032,0.017,0.047,0.027c0.003,0.003,0.008,0.005,0.01,0.008c0.013,0.007,0.025,0.015,0.035,0.025
		c0.005,0.003,0.007,0.005,0.013,0.008c0.015,0.01,0.03,0.022,0.043,0.033c0.012,0.01,0.027,0.022,0.04,0.035l0.048,0.047
		c0.013,0.013,0.025,0.028,0.035,0.04c0.003,0.003,0.005,0.008,0.007,0.01c0.01,0.01,0.018,0.022,0.025,0.035
		c0.003,0.005,0.005,0.008,0.008,0.013l0.03,0.045c0,0,0,0.003,0.003,0.003c0.01,0.015,0.017,0.03,0.025,0.045
		c0.065,0.125,0.102,0.268,0.102,0.418c0,0.15-0.037,0.292-0.102,0.418c-0.008,0.015-0.018,0.03-0.025,0.045
		c0,0,0,0.003-0.003,0.003l-0.03,0.045c-0.003,0.005-0.005,0.007-0.008,0.012c-0.007,0.012-0.017,0.022-0.025,0.035
		c-0.002,0.002-0.005,0.007-0.007,0.01c-0.012,0.015-0.022,0.027-0.035,0.04l-0.008,0.008l-0.03,0.03l-0.01,0.01
		c-0.012,0.013-0.025,0.023-0.04,0.035c-0.015,0.012-0.028,0.022-0.043,0.032c-0.005,0.003-0.008,0.005-0.013,0.008
		c-0.012,0.007-0.022,0.017-0.035,0.025c-0.002,0.002-0.007,0.005-0.01,0.007c-0.015,0.01-0.03,0.017-0.047,0.027
		c-0.002,0.003-0.007,0.003-0.01,0.005c-0.012,0.008-0.025,0.013-0.04,0.02l-0.015,0.008c-0.018,0.007-0.033,0.015-0.05,0.02
		c-0.017,0.008-0.035,0.013-0.052,0.018c-0.005,0.002-0.01,0.002-0.015,0.005c-0.015,0.005-0.027,0.007-0.042,0.01
		c-0.005,0-0.007,0.002-0.012,0.002c-0.018,0.005-0.038,0.008-0.055,0.01c-0.005,0-0.007,0-0.012,0.002
		c-0.015,0.003-0.03,0.003-0.045,0.005H6.547c-0.02,0-0.037,0.003-0.057,0.003s-0.038,0-0.057-0.003H6.417
		c-0.015,0-0.03-0.002-0.045-0.005c-0.005,0-0.008,0-0.013-0.002c-0.018-0.002-0.038-0.005-0.055-0.01
		c-0.005,0-0.008-0.002-0.013-0.002c-0.015-0.003-0.03-0.008-0.042-0.01c-0.005-0.003-0.01-0.003-0.015-0.005
		c-0.017-0.005-0.035-0.01-0.052-0.018c-0.017-0.005-0.032-0.012-0.05-0.02l-0.015-0.008c-0.013-0.005-0.028-0.012-0.04-0.02
		c-0.003-0.002-0.008-0.002-0.01-0.005c-0.015-0.007-0.032-0.017-0.047-0.027c-0.003-0.002-0.008-0.005-0.01-0.007
		c-0.012-0.008-0.025-0.015-0.035-0.025c-0.005-0.003-0.007-0.005-0.012-0.008c-0.015-0.01-0.03-0.022-0.042-0.032
		c-0.013-0.01-0.028-0.023-0.04-0.035l-0.01-0.01l-0.03-0.03l-0.007-0.008c-0.013-0.012-0.025-0.027-0.035-0.04
		c-0.003-0.003-0.005-0.008-0.008-0.01c-0.01-0.01-0.018-0.023-0.025-0.035c-0.003-0.005-0.005-0.008-0.008-0.012l-0.03-0.045
		v-0.003c-0.01-0.015-0.018-0.03-0.025-0.045C5.637,12.093,5.599,11.95,5.599,11.8C5.599,11.65,5.637,11.508,5.702,11.383z"/>
	<path stroke="#cdcdd8" d="M12.7,10.675v5.526c0,0.11,0.09,0.2,0.2,0.2h1.2c0.11,0,0.2-0.09,0.2-0.2v-5.526c-0.253,0.082-0.52,0.125-0.8,0.125
		c0.28,0,0.548-0.045,0.8-0.125c1.045-0.338,1.8-1.318,1.8-2.476c0-1.158-0.755-2.138-1.8-2.475V3.799c0-0.11-0.09-0.2-0.2-0.2h-1.2
		c-0.11,0-0.2,0.09-0.2,0.2v1.925c0.253-0.083,0.52-0.125,0.8-0.125c-0.28,0-0.548,0.045-0.8,0.125
		c-1.045,0.338-1.8,1.318-1.8,2.475C10.9,9.357,11.655,10.338,12.7,10.675z M12.703,7.782c0.007-0.015,0.017-0.03,0.025-0.045V7.735
		l0.03-0.045c0.003-0.005,0.005-0.007,0.008-0.012c0.007-0.012,0.017-0.022,0.025-0.035c0.002-0.003,0.005-0.008,0.007-0.01
		c0.013-0.015,0.022-0.027,0.035-0.04l0.007-0.008l0.03-0.03l0.01-0.01c0.013-0.013,0.025-0.023,0.04-0.035
		c0.015-0.012,0.027-0.022,0.043-0.032c0.005-0.003,0.007-0.005,0.012-0.008c0.013-0.007,0.023-0.017,0.035-0.025
		c0.002-0.002,0.007-0.005,0.01-0.007c0.015-0.01,0.03-0.017,0.047-0.027c0.002-0.003,0.007-0.003,0.01-0.005
		c0.012-0.008,0.025-0.013,0.04-0.02l0.015-0.008c0.018-0.007,0.033-0.015,0.05-0.02c0.017-0.008,0.035-0.013,0.053-0.018
		c0.005-0.002,0.01-0.002,0.015-0.005c0.015-0.005,0.028-0.008,0.042-0.01c0.005,0,0.008-0.002,0.013-0.002
		c0.017-0.005,0.037-0.008,0.055-0.01c0.005,0,0.008,0,0.013-0.002c0.015-0.003,0.03-0.003,0.045-0.005h0.015
		c0.02,0,0.037-0.003,0.057-0.003s0.037,0,0.058,0.003h0.015c0.015,0,0.03,0.002,0.045,0.005c0.005,0,0.008,0,0.013,0.002
		c0.017,0.002,0.037,0.005,0.055,0.01c0.005,0,0.007,0.002,0.012,0.002c0.015,0.003,0.03,0.008,0.042,0.01
		c0.005,0.003,0.01,0.003,0.015,0.005c0.017,0.005,0.035,0.01,0.052,0.018c0.017,0.005,0.032,0.012,0.05,0.02l0.015,0.008
		c0.012,0.005,0.027,0.012,0.04,0.02c0.003,0.002,0.008,0.002,0.01,0.005c0.015,0.007,0.032,0.017,0.048,0.027
		c0.003,0.002,0.008,0.005,0.01,0.007c0.013,0.008,0.025,0.015,0.035,0.025c0.005,0.003,0.007,0.005,0.012,0.008
		c0.015,0.01,0.03,0.022,0.043,0.032c0.012,0.01,0.027,0.022,0.04,0.035l0.01,0.01l0.03,0.03l0.007,0.008
		c0.013,0.012,0.025,0.027,0.035,0.04c0.003,0.003,0.005,0.008,0.007,0.01c0.01,0.01,0.018,0.023,0.025,0.035
		c0.003,0.005,0.005,0.008,0.008,0.012l0.03,0.045v0.003c0.01,0.015,0.018,0.03,0.025,0.045c0.065,0.125,0.103,0.268,0.103,0.418
		c0,0.15-0.037,0.293-0.103,0.418c-0.007,0.015-0.018,0.03-0.025,0.045v0.003l-0.03,0.045c-0.003,0.005-0.005,0.008-0.008,0.013
		c-0.007,0.012-0.017,0.022-0.025,0.035c-0.002,0.003-0.005,0.008-0.007,0.01c-0.012,0.015-0.022,0.028-0.035,0.04l-0.047,0.047
		c-0.012,0.013-0.025,0.022-0.04,0.035c-0.015,0.013-0.028,0.022-0.043,0.033c-0.005,0.003-0.007,0.005-0.012,0.008
		c-0.012,0.007-0.022,0.017-0.035,0.025c-0.002,0.003-0.007,0.005-0.01,0.008c-0.015,0.01-0.03,0.017-0.048,0.027
		c-0.002,0.003-0.007,0.003-0.01,0.005c-0.013,0.007-0.025,0.012-0.04,0.02l-0.015,0.007c-0.018,0.008-0.033,0.015-0.05,0.02
		c-0.017,0.008-0.035,0.013-0.052,0.018c-0.005,0.002-0.01,0.002-0.015,0.005c-0.015,0.005-0.027,0.008-0.042,0.01
		c-0.005,0-0.007,0.003-0.012,0.003c-0.018,0.005-0.038,0.007-0.055,0.01c-0.005,0-0.007,0-0.013,0.002
		c-0.015,0.003-0.03,0.003-0.045,0.005h-0.015c-0.02,0-0.038,0.003-0.058,0.003s-0.037,0-0.057-0.003h-0.015
		c-0.015,0-0.03-0.002-0.045-0.005c-0.005,0-0.008,0-0.013-0.002c-0.017-0.003-0.037-0.005-0.055-0.01
		c-0.005,0-0.008-0.003-0.013-0.003c-0.015-0.002-0.03-0.007-0.042-0.01c-0.005-0.002-0.01-0.002-0.015-0.005
		c-0.018-0.005-0.035-0.01-0.053-0.018c-0.017-0.005-0.032-0.012-0.05-0.02l-0.015-0.007c-0.013-0.005-0.028-0.013-0.04-0.02
		c-0.003-0.002-0.008-0.002-0.01-0.005c-0.015-0.007-0.032-0.017-0.047-0.027c-0.003-0.003-0.008-0.005-0.01-0.008
		c-0.012-0.008-0.025-0.015-0.035-0.025c-0.005-0.003-0.007-0.005-0.012-0.008c-0.015-0.01-0.03-0.022-0.043-0.033
		c-0.013-0.01-0.028-0.022-0.04-0.035l-0.047-0.047c-0.013-0.012-0.025-0.027-0.035-0.04c-0.002-0.002-0.005-0.007-0.007-0.01
		c-0.01-0.01-0.018-0.022-0.025-0.035c-0.003-0.005-0.005-0.008-0.008-0.013l-0.03-0.045V8.662c-0.01-0.015-0.018-0.03-0.025-0.045
		C12.638,8.492,12.6,8.35,12.6,8.2C12.6,8.05,12.638,7.907,12.703,7.782z"/>
</g>
</svg>
