<?xml version="1.0" encoding="utf-8"?>
<!-- Generator: Adobe Illustrator 17.0.0, SVG Export Plug-In . SVG Version: 6.00 Build 0)  -->
<!DOCTYPE svg PUBLIC "-//W3C//DTD SVG 1.1//EN" "http://www.w3.org/Graphics/SVG/1.1/DTD/svg11.dtd">
<svg version="1.1" id="图层_1" xmlns="http://www.w3.org/2000/svg" xmlns:xlink="http://www.w3.org/1999/xlink" x="0px" y="0px"
	 width="283.465px" height="65.197px" viewBox="0 0 283.465 65.197" enable-background="new 0 0 283.465 65.197"
	 xml:space="preserve">
<g>
	<path fill="#FFFFFF" d="M78.124,34.479v-0.001v-1.505c0-4.232,2.999-9.426,6.664-11.542l1.303-0.752
		c1.38-0.797,3.09-1.293,4.882-1.489l-15.97-9.22l-4.844,2.797c-3.665,2.116-6.664,7.31-6.664,11.542v18.398
		c0,4.232,2.999,9.426,6.664,11.542l7.967,4.599V34.479z"/>
	<path fill="#FFFFFF" d="M99.338,20.636c0.026,0.015,0.054,0.027,0.08,0.042l1.303,0.752c3.665,2.116,6.664,7.31,6.664,11.542v1.505
		c0,1.592-0.424,3.319-1.149,4.968l15.779-9.11v-6.027c0-4.232-2.999-9.426-6.664-11.542L99.418,3.566
		c-3.665-2.116-9.662-2.116-13.328,0l-8.16,4.711L99.338,20.636z"/>
	<path fill="#FFFFFF" d="M100.858,45.932c-0.046,0.028-0.091,0.06-0.137,0.087l-1.303,0.752c-3.665,2.116-9.662,2.116-13.328,0
		l-1.303-0.752c-1.383-0.798-2.67-2.035-3.738-3.493v18.01l5.04,2.91c3.665,2.116,9.662,2.116,13.328,0l15.934-9.199
		c3.665-2.116,6.664-7.31,6.664-11.542v-8.989L100.858,45.932z"/>
</g>
<g>
	<path fill="#FFFFFF" d="M51.772,53.475c-5.075,5.618-14.337,8.281-23.325,8.281c-14.407,0-27.853-11.23-27.853-27.861
		c0-15.933,12.005-28.638,27.716-28.638c10.703,0,19.758,5.824,22.297,8.493c0.961,0.983,1.235,2.177,1.235,3.366
		c0,2.949-2.402,5.264-5.145,5.264c-1.441,0-2.265-0.491-3.843-1.755c-2.195-1.68-7.547-4.698-14.474-4.698
		c-8.578,0-17.426,6.315-17.426,17.968c0,8.35,6.586,17.265,19.208,17.265c6.656,0,12.555-2.949,14.613-5.264
		c0.891-1.057,2.195-1.474,3.5-1.474c5.145,0,5.145,5.195,5.145,5.195C53.42,51.017,52.94,52.423,51.772,53.475z"/>
	<path fill="#FFFFFF" d="M194.75,12.904c-4.187,14.533-8.645,29.621-12.898,44.223c-0.687,2.383-2.609,3.858-4.941,3.858h-1.989
		c-2.469,0-4.461-1.892-5.008-3.858c-3.086-10.67-5.008-17.059-8.094-28.009l-7.273,27.935v-0.069
		c-0.687,2.457-2.882,4.001-5.078,4.001h-2.332c-2.399,0-4.321-1.474-5.008-3.858L129.23,12.835
		c-0.137-0.491-0.204-1.052-0.204-1.474c0-2.806,2.469-5.401,5.215-5.401c3.771,0,5.008,3.789,5.008,3.789l8.918,30.318
		c2.676-9.967,5.419-20.351,8.027-30.25c0.617-2.246,2.673-3.858,5.008-3.858h1.371c2.262,0,4.458,1.612,5.075,3.858l8.304,30.53
		l8.848-30.598c0,0,1.168-3.789,4.941-3.789c2.743,0,5.282,2.383,5.282,5.264C195.024,11.784,194.887,12.418,194.75,12.904z"/>
	<path fill="#FFFFFF" d="M214,61.339h-0.687c-2.539,0-4.871-2.32-4.871-4.983V10.944c0-2.737,2.332-4.983,4.871-4.983H214
		c2.673,0,4.868,2.246,4.868,4.983v45.411C218.868,59.018,216.673,61.339,214,61.339z"/>
	<path fill="#FFFFFF" d="M278.847,61.339h-1.235c-1.648,0-3.089-0.703-4.117-2.04C264.164,47.16,256.55,37.33,247.081,24.98v31.375
		c0,2.663-2.195,4.983-4.871,4.983h-0.617c-2.606,0-4.871-2.32-4.871-4.983v-44.92c0-2.949,2.332-5.406,5.215-5.406h1.785
		c1.508,0,3.156,0.84,4.114,2.103c8.851,11.441,16.809,22.043,25.864,33.901v-31.09c0-2.737,2.335-4.983,4.871-4.983h0.62
		c2.743,0,4.868,2.246,4.868,4.983v45.126C284.059,58.881,281.727,61.339,278.847,61.339z"/>
</g>
</svg>
