<?xml version="1.0" encoding="utf-8"?>
<!-- Generator: Adobe Illustrator 17.0.0, SVG Export Plug-In . SVG Version: 6.00 Build 0)  -->
<!DOCTYPE svg PUBLIC "-//W3C//DTD SVG 1.1//EN" "http://www.w3.org/Graphics/SVG/1.1/DTD/svg11.dtd">
<svg version="1.1" id="图层_1" xmlns="http://www.w3.org/2000/svg" xmlns:xlink="http://www.w3.org/1999/xlink" x="0px" y="0px"
	 width="16px" height="16px" viewBox="0 0 16 16" enable-background="new 0 0 16 16" xml:space="preserve">
<g>
	<path d="M7.865,11.187c0.068,0.088,0.201,0.088,0.269,0l2.396-3.031c0.088-0.111,0.009-0.276-0.135-0.276H8.811V0.642
		c0-0.094-0.077-0.171-0.171-0.171H7.356c-0.094,0-0.171,0.077-0.171,0.171v7.236H5.604c-0.143,0-0.222,0.165-0.135,0.276
		L7.865,11.187z M7.865,11.187"/>
	<path d="M15.829,10.439h-1.283c-0.094,0-0.171,0.077-0.171,0.171v3.294H1.626V10.61c0-0.094-0.077-0.171-0.171-0.171H0.171
		C0.077,10.439,0,10.516,0,10.61v4.235c0,0.379,0.306,0.684,0.685,0.684h14.631c0.379,0,0.684-0.306,0.684-0.684V10.61
		C16,10.516,15.923,10.439,15.829,10.439L15.829,10.439z M15.829,10.439"/>
</g>
</svg>
