<?xml version="1.0" encoding="utf-8"?>
<!-- Generator: Adobe Illustrator 17.0.0, SVG Export Plug-In . SVG Version: 6.00 Build 0)  -->
<!DOCTYPE svg PUBLIC "-//W3C//DTD SVG 1.1//EN" "http://www.w3.org/Graphics/SVG/1.1/DTD/svg11.dtd">
<svg version="1.1" id="图层_1" xmlns="http://www.w3.org/2000/svg" xmlns:xlink="http://www.w3.org/1999/xlink" x="0px" y="0px"
	 width="16px" height="16px" viewBox="0 0 16 16" enable-background="new 0 0 16 16" xml:space="preserve">
<path d="M8,13.659"/>
<g>
	<path d="M15.151,3.899l-3.049-3.049c-0.141-0.141-0.313-0.244-0.501-0.3V0.499H1.099c-0.332,0-0.6,0.268-0.6,0.6v13.802
		c0,0.332,0.268,0.6,0.6,0.6h13.802c0.332,0,0.6-0.268,0.6-0.6V4.746C15.501,4.427,15.376,4.124,15.151,3.899z M5.6,1.849H10.4v1.95
		H5.6V1.849z M14.151,14.151H1.849V1.849h2.55v2.55c0,0.332,0.268,0.6,0.6,0.6h6.001c0.332,0,0.6-0.268,0.6-0.6V2.258l2.55,2.551
		V14.151z"/>
	<path d="M8,6.687c-1.491,0-2.701,1.21-2.701,2.701c0,1.491,1.21,2.7,2.701,2.7s2.701-1.21,2.701-2.7
		C10.701,7.897,9.491,6.687,8,6.687z M8,10.888c-0.829,0-1.5-0.671-1.5-1.5s0.671-1.5,1.5-1.5c0.829,0,1.5,0.671,1.5,1.5
		S8.829,10.888,8,10.888z"/>
</g>
</svg>
