<?xml version="1.0" encoding="utf-8"?>
<!-- Generator: Adobe Illustrator 17.0.0, SVG Export Plug-In . SVG Version: 6.00 Build 0)  -->
<!DOCTYPE svg PUBLIC "-//W3C//DTD SVG 1.1//EN" "http://www.w3.org/Graphics/SVG/1.1/DTD/svg11.dtd">
<svg version="1.1" id="图层_1" xmlns="http://www.w3.org/2000/svg" xmlns:xlink="http://www.w3.org/1999/xlink" x="0px" y="0px"
	 width="16px" height="16px" viewBox="0 0 16 16" enable-background="new 0 0 16 16" xml:space="preserve">
<path d="M8,13.659"/>
<g>
	<path d="M4.96,1.44H4.8c0.088,0,0.16-0.072,0.16-0.16V1.44h6.08V1.28c0,0.088,0.072,0.16,0.16,0.16h-0.16v1.44h1.44v-1.6
		C12.48,0.574,11.906,0,11.2,0H4.8C4.094,0,3.52,0.574,3.52,1.28v1.6h1.44V1.44z M4.96,1.44"/>
	<path d="M15.04,2.88H0.96c-0.354,0-0.64,0.286-0.64,0.64v0.64c0,0.088,0.072,0.16,0.16,0.16h1.208l0.494,10.46
		C2.214,15.462,2.778,16,3.46,16h9.08c0.684,0,1.246-0.536,1.278-1.22l0.494-10.46h1.208c0.088,0,0.16-0.072,0.16-0.16V3.52
		C15.68,3.166,15.394,2.88,15.04,2.88L15.04,2.88z M12.386,14.56H3.614L3.13,4.32h9.74L12.386,14.56z M12.386,14.56"/>
</g>
</svg>
