<?xml version="1.0" encoding="utf-8"?>
<!-- Generator: Adobe Illustrator 17.0.0, SVG Export Plug-In . SVG Version: 6.00 Build 0)  -->
<!DOCTYPE svg PUBLIC "-//W3C//DTD SVG 1.1//EN" "http://www.w3.org/Graphics/SVG/1.1/DTD/svg11.dtd">
<svg version="1.1" id="图层_1" xmlns="http://www.w3.org/2000/svg" xmlns:xlink="http://www.w3.org/1999/xlink" x="0px" y="0px"
	 width="16px" height="16px" viewBox="0 0 16 16" enable-background="new 0 0 16 16" xml:space="preserve">
<g>
	<g>
		<path d="M1.448,7.851c0.019-0.832,0.19-1.64,0.512-2.4c0.33-0.781,0.802-1.48,1.404-2.084c0.602-0.604,1.303-1.076,2.084-1.406
			c0.808-0.341,1.665-0.514,2.55-0.514c0.886,0,1.743,0.173,2.549,0.514c0.779,0.33,1.48,0.802,2.082,1.406
			c0.189,0.189,0.366,0.389,0.529,0.598l-1.147,0.895c-0.101,0.078-0.067,0.238,0.057,0.269l3.347,0.819
			c0.095,0.023,0.189-0.049,0.189-0.147l0.015-3.446c0-0.128-0.147-0.2-0.246-0.12l-1.074,0.84C12.834,1.202,10.556,0,7.996,0
			C3.632,0,0.082,3.497,0,7.844C-0.002,7.93,0.067,8,0.152,8h1.143C1.379,8,1.446,7.933,1.448,7.851L1.448,7.851z M15.848,8h-1.143
			c-0.084,0-0.15,0.067-0.152,0.149c-0.019,0.832-0.19,1.64-0.512,2.4c-0.33,0.781-0.802,1.482-1.404,2.084
			c-0.602,0.602-1.303,1.076-2.084,1.406c-0.808,0.341-1.665,0.514-2.55,0.514s-1.743-0.173-2.55-0.514
			c-0.779-0.33-1.48-0.802-2.082-1.406c-0.189-0.189-0.366-0.389-0.53-0.598l1.147-0.895c0.101-0.078,0.067-0.238-0.057-0.269
			l-3.347-0.819c-0.095-0.023-0.189,0.049-0.189,0.147l-0.013,3.448c0,0.128,0.147,0.2,0.246,0.12l1.074-0.84
			C3.166,14.798,5.444,16,8.004,16c4.366,0,7.914-3.499,7.996-7.844C16.002,8.07,15.933,8,15.848,8L15.848,8z M15.848,8"/>
	</g>
</g>
</svg>
