<?xml version="1.0" encoding="utf-8"?>
<!-- Generator: Adobe Illustrator 17.0.0, SVG Export Plug-In . SVG Version: 6.00 Build 0)  -->
<!DOCTYPE svg PUBLIC "-//W3C//DTD SVG 1.1//EN" "http://www.w3.org/Graphics/SVG/1.1/DTD/svg11.dtd">
<svg version="1.1" id="图层_1" xmlns="http://www.w3.org/2000/svg" xmlns:xlink="http://www.w3.org/1999/xlink" x="0px" y="0px"
	 width="16px" height="16px" viewBox="0 0 16 16" enable-background="new 0 0 16 16" xml:space="preserve">
<path d="M8,13.659"/>
<g>
	<g>
		<path d="M6.422,10.914c0.254,0.354,0.78,0.354,1.034,0l4.212-5.84c0.076-0.106,0-0.254-0.13-0.254H10.6
			c-0.204,0-0.398,0.098-0.518,0.266L6.94,9.446L5.516,7.47c-0.12-0.166-0.312-0.266-0.518-0.266H4.06
			c-0.13,0-0.206,0.148-0.13,0.254L6.422,10.914z M6.422,10.914"/>
		<path d="M15.36,0H0.64C0.286,0,0,0.286,0,0.64v14.72C0,15.714,0.286,16,0.64,16h14.72c0.354,0,0.64-0.286,0.64-0.64V0.64
			C16,0.286,15.714,0,15.36,0L15.36,0z M14.56,14.56H1.44V1.44h13.12V14.56z M14.56,14.56"/>
	</g>
</g>
</svg>
