<?xml version="1.0" encoding="utf-8"?>
<!-- Generator: Adobe Illustrator 17.0.0, SVG Export Plug-In . SVG Version: 6.00 Build 0)  -->
<!DOCTYPE svg PUBLIC "-//W3C//DTD SVG 1.1//EN" "http://www.w3.org/Graphics/SVG/1.1/DTD/svg11.dtd">
<svg version="1.1" id="图层_1" xmlns="http://www.w3.org/2000/svg" xmlns:xlink="http://www.w3.org/1999/xlink" x="0px" y="0px"
	 width="16px" height="16px" viewBox="0 0 16 16" enable-background="new 0 0 16 16" xml:space="preserve">
<path d="M8,13.659"/>
<g>
	<path d="M11.096,5.175c0-0.079-0.064-0.143-0.143-0.143L9.775,5.037L8,7.154L6.227,5.039l-1.18-0.005
		c-0.079,0-0.143,0.063-0.143,0.143c0,0.034,0.012,0.066,0.034,0.093l2.323,2.768l-2.323,2.766
		c-0.021,0.027-0.034,0.059-0.034,0.093c0,0.079,0.064,0.143,0.143,0.143l1.18-0.005L8,8.918l1.773,2.114l1.179,0.005
		c0.079,0,0.143-0.063,0.143-0.143c0-0.034-0.012-0.066-0.034-0.093l-2.32-2.766l2.323-2.768
		C11.086,5.243,11.096,5.209,11.096,5.175z"/>
	<path d="M8,0C3.582,0,0,3.582,0,8c0,4.418,3.582,8,8,8c4.418,0,8-3.582,8-8C16,3.582,12.418,0,8,0z M8,14.643
		c-3.668,0-6.643-2.975-6.643-6.643S4.332,1.357,8,1.357S14.643,4.332,14.643,8S11.668,14.643,8,14.643z"/>
</g>
</svg>
