<?xml version="1.0" encoding="utf-8"?>
<!-- Generator: Adobe Illustrator 17.0.0, SVG Export Plug-In . SVG Version: 6.00 Build 0)  -->
<!DOCTYPE svg PUBLIC "-//W3C//DTD SVG 1.1//EN" "http://www.w3.org/Graphics/SVG/1.1/DTD/svg11.dtd">
<svg version="1.1" id="图层_1" xmlns="http://www.w3.org/2000/svg" xmlns:xlink="http://www.w3.org/1999/xlink" x="0px" y="0px"
	 width="16px" height="16px" viewBox="0 0 16 16" enable-background="new 0 0 16 16" xml:space="preserve">
<g>
	<path d="M12.076,8l-4.524,5.78C7.482,13.869,7.545,14,7.659,14h1.318c0.084,0,0.164-0.039,0.215-0.104l4.352-5.56
		c0.155-0.198,0.155-0.476,0-0.673L9.191,2.104C9.14,2.037,9.06,2,8.977,2H7.659C7.545,2,7.482,2.131,7.552,2.22L12.076,8z"/>
	<path d="M6.894,8L2.37,13.78C2.3,13.869,2.363,14,2.477,14h1.318c0.084,0,0.164-0.039,0.215-0.104l4.352-5.56
		c0.155-0.198,0.155-0.476,0-0.673L4.01,2.104C3.958,2.037,3.878,2,3.795,2H2.477C2.363,2,2.3,2.131,2.37,2.22L6.894,8z"/>
</g>
</svg>
