<?xml version="1.0" encoding="utf-8"?>
<!-- Generator: Adobe Illustrator 17.0.0, SVG Export Plug-In . SVG Version: 6.00 Build 0)  -->
<!DOCTYPE svg PUBLIC "-//W3C//DTD SVG 1.1//EN" "http://www.w3.org/Graphics/SVG/1.1/DTD/svg11.dtd">
<svg version="1.1" id="图层_1" xmlns="http://www.w3.org/2000/svg" xmlns:xlink="http://www.w3.org/1999/xlink" x="0px" y="0px"
	 width="16px" height="16px" viewBox="0 0 16 16" enable-background="new 0 0 16 16" xml:space="preserve">
<g>
	<path d="M3.924,8l4.524-5.78C8.518,2.131,8.455,2,8.341,2H7.023C6.94,2,6.86,2.039,6.809,2.104l-4.352,5.56
		c-0.155,0.198-0.155,0.476,0,0.673l4.352,5.559C6.86,13.963,6.94,14,7.023,14h1.318c0.114,0,0.177-0.131,0.107-0.22L3.924,8z"/>
	<path d="M9.106,8l4.524-5.78C13.7,2.131,13.637,2,13.523,2h-1.318c-0.084,0-0.164,0.039-0.215,0.104l-4.352,5.56
		c-0.155,0.198-0.155,0.476,0,0.673l4.352,5.559C12.042,13.963,12.122,14,12.205,14h1.318c0.114,0,0.177-0.131,0.107-0.22L9.106,8z"
		/>
</g>
</svg>
