<?xml version="1.0" encoding="utf-8"?>
<!-- Generator: Adobe Illustrator 17.0.0, SVG Export Plug-In . SVG Version: 6.00 Build 0)  -->
<!DOCTYPE svg PUBLIC "-//W3C//DTD SVG 1.1//EN" "http://www.w3.org/Graphics/SVG/1.1/DTD/svg11.dtd">
<svg version="1.1" id="图层_1" xmlns="http://www.w3.org/2000/svg" xmlns:xlink="http://www.w3.org/1999/xlink" x="0px" y="0px"
	 width="16px" height="16px" viewBox="0 0 16 16" enable-background="new 0 0 16 16" xml:space="preserve">
<g>
	<g>
		<path d="M9.921,0C6.563,0,3.842,2.722,3.842,6.079c0,1.406,0.478,2.7,1.278,3.729L4.298,10.63L3.052,9.385
			c-0.062-0.062-0.164-0.062-0.228,0L2.028,10.18c-0.062,0.062-0.062,0.164,0,0.228l1.246,1.246l-0.898,0.898L1.13,11.306
			c-0.062-0.062-0.164-0.062-0.228,0l-0.796,0.796c-0.062,0.062-0.062,0.164,0,0.228l1.246,1.246l-1.306,1.306
			c-0.062,0.062-0.062,0.164,0,0.226l0.846,0.846c0.062,0.062,0.164,0.062,0.226,0l5.071-5.071c1.032,0.798,2.326,1.276,3.731,1.276
			c3.357,0,6.079-2.722,6.079-6.079C16,2.722,13.278,0,9.921,0L9.921,0z M13.144,9.303c-0.86,0.862-2.006,1.336-3.224,1.336
			c-1.218,0-2.364-0.474-3.223-1.336c-0.862-0.86-1.336-2.006-1.336-3.224c0-1.218,0.474-2.364,1.336-3.224
			C7.557,1.994,8.703,1.52,9.921,1.52c1.218,0,2.364,0.474,3.224,1.336c0.862,0.86,1.336,2.006,1.336,3.224
			C14.48,7.297,14.006,8.443,13.144,9.303L13.144,9.303z M13.144,9.303"/>
	</g>
</g>
</svg>
