<?xml version="1.0" encoding="utf-8"?>
<!-- Generator: Adobe Illustrator 17.0.0, SVG Export Plug-In . SVG Version: 6.00 Build 0)  -->
<!DOCTYPE svg PUBLIC "-//W3C//DTD SVG 1.1//EN" "http://www.w3.org/Graphics/SVG/1.1/DTD/svg11.dtd">
<svg version="1.1" id="图层_1" xmlns="http://www.w3.org/2000/svg" xmlns:xlink="http://www.w3.org/1999/xlink" x="0px" y="0px"
	 width="16px" height="16px" viewBox="0 0 16 16" enable-background="new 0 0 16 16" xml:space="preserve">
<g>
	<g>
		<path d="M15.124,0.318h-4.104c-0.346,0-0.655,0.237-0.736,0.583C10.036,1.952,9.095,2.706,8,2.706S5.964,1.952,5.715,0.901
			C5.634,0.555,5.327,0.318,4.979,0.318H0.876C0.392,0.318,0,0.71,0,1.194v5.015c0,0.484,0.392,0.876,0.876,0.876h1.493v7.721
			c0,0.484,0.392,0.876,0.876,0.876h9.513c0.484,0,0.876-0.392,0.876-0.876V7.085h1.493C15.608,7.085,16,6.692,16,6.209V1.194
			C16,0.71,15.608,0.318,15.124,0.318L15.124,0.318z M14.567,5.652h-2.368v8.597H3.801V5.652H1.433v-3.9h3.051
			C5.045,3.168,6.424,4.139,8,4.139c1.576,0,2.955-0.971,3.516-2.388h3.051V5.652z M14.567,5.652"/>
	</g>
</g>
</svg>
