<?xml version="1.0" encoding="utf-8"?>
<!-- Generator: Adobe Illustrator 17.0.0, SVG Export Plug-In . SVG Version: 6.00 Build 0)  -->
<!DOCTYPE svg PUBLIC "-//W3C//DTD SVG 1.1//EN" "http://www.w3.org/Graphics/SVG/1.1/DTD/svg11.dtd">
<svg version="1.1" id="图层_1" xmlns="http://www.w3.org/2000/svg" xmlns:xlink="http://www.w3.org/1999/xlink" x="0px" y="0px"
	 width="16px" height="16px" viewBox="0 0 16 16" enable-background="new 0 0 16 16" xml:space="preserve">
<path d="M7.836,14.65L3.769,9.06C3.743,9.024,3.731,8.983,3.731,8.94c0-0.113,0.092-0.205,0.205-0.205h8.129
	c0.044,0,0.084,0.013,0.12,0.038c0.092,0.066,0.113,0.194,0.046,0.287l-4.065,5.59c-0.013,0.018-0.028,0.033-0.046,0.046
	C8.03,14.763,7.902,14.742,7.836,14.65L7.836,14.65z"/>
<path d="M8.164,1.914l4.067,5.59c0.026,0.036,0.038,0.077,0.038,0.12c0,0.113-0.092,0.205-0.205,0.205H3.936
	c-0.044,0-0.084-0.013-0.12-0.038C3.724,7.724,3.703,7.596,3.77,7.504l4.065-5.59C7.847,1.896,7.862,1.881,7.88,1.868
	C7.97,1.801,8.098,1.822,8.164,1.914L8.164,1.914z"/>
<path d="M8,13.659"/>
</svg>
