<?xml version="1.0" encoding="utf-8"?>
<!-- Generator: Adobe Illustrator 17.0.0, SVG Export Plug-In . SVG Version: 6.00 Build 0)  -->
<!DOCTYPE svg PUBLIC "-//W3C//DTD SVG 1.1//EN" "http://www.w3.org/Graphics/SVG/1.1/DTD/svg11.dtd">
<svg version="1.1" id="图层_1" xmlns="http://www.w3.org/2000/svg" xmlns:xlink="http://www.w3.org/1999/xlink" x="0px" y="0px"
	 width="16px" height="16px" viewBox="0 0 16 16" enable-background="new 0 0 16 16" xml:space="preserve">
<path d="M8,13.659"/>
<g>
	<g>
		<path d="M9.92,0C6.562,0,3.84,2.722,3.84,6.08c0,1.406,0.478,2.7,1.278,3.73l-5.072,5.072c-0.062,0.062-0.062,0.164,0,0.226
			l0.846,0.846c0.062,0.062,0.164,0.062,0.226,0l5.072-5.072c1.03,0.8,2.324,1.278,3.73,1.278c3.358,0,6.08-2.722,6.08-6.08
			C16,2.722,13.278,0,9.92,0L9.92,0z M13.144,9.304c-0.86,0.862-2.006,1.336-3.224,1.336c-1.218,0-2.364-0.474-3.224-1.336
			C5.834,8.444,5.36,7.298,5.36,6.08c0-1.218,0.474-2.364,1.336-3.224C7.556,1.994,8.702,1.52,9.92,1.52
			c1.218,0,2.364,0.474,3.224,1.336c0.862,0.86,1.336,2.006,1.336,3.224C14.48,7.298,14.006,8.444,13.144,9.304L13.144,9.304z
			 M13.144,9.304"/>
	</g>
</g>
</svg>
