<?xml version="1.0" encoding="utf-8"?>
<!-- Generator: Adobe Illustrator 17.0.0, SVG Export Plug-In . SVG Version: 6.00 Build 0)  -->
<!DOCTYPE svg PUBLIC "-//W3C//DTD SVG 1.1//EN" "http://www.w3.org/Graphics/SVG/1.1/DTD/svg11.dtd">
<svg version="1.1" id="图层_1" xmlns="http://www.w3.org/2000/svg" xmlns:xlink="http://www.w3.org/1999/xlink" x="0px" y="0px"
	 width="16px" height="16px" viewBox="0 0 16 16" enable-background="new 0 0 16 16" xml:space="preserve">
<path d="M15.36,1.44H12V0.16C12,0.072,11.928,0,11.84,0h-1.12c-0.088,0-0.16,0.072-0.16,0.16v1.28H5.44V0.16
	C5.44,0.072,5.368,0,5.28,0H4.16C4.072,0,4,0.072,4,0.16v1.28H0.64C0.286,1.44,0,1.726,0,2.08v13.28C0,15.714,0.286,16,0.64,16
	h14.72c0.354,0,0.64-0.286,0.64-0.64V2.08C16,1.726,15.714,1.44,15.36,1.44L15.36,1.44z M14.56,14.56H1.44v-7.6h13.12V14.56z
	 M1.44,5.6V2.88H4v0.96C4,3.928,4.072,4,4.16,4h1.12c0.088,0,0.16-0.072,0.16-0.16V2.88h5.12v0.96c0,0.088,0.072,0.16,0.16,0.16
	h1.12C11.928,4,12,3.928,12,3.84V2.88h2.56V5.6H1.44z M1.44,5.6"/>
</svg>
