<?xml version="1.0" encoding="utf-8"?>
<!-- Generator: Adobe Illustrator 17.0.0, SVG Export Plug-In . SVG Version: 6.00 Build 0)  -->
<!DOCTYPE svg PUBLIC "-//W3C//DTD SVG 1.1//EN" "http://www.w3.org/Graphics/SVG/1.1/DTD/svg11.dtd">
<svg version="1.1" id="图层_1" xmlns="http://www.w3.org/2000/svg" xmlns:xlink="http://www.w3.org/1999/xlink" x="0px" y="0px"
	 width="16px" height="16px" viewBox="0 0 16 16" enable-background="new 0 0 16 16" xml:space="preserve">
<path d="M8,13.659"/>
<g>
	<g>
		<path d="M15.84,0.96H0.16C0.072,0.96,0,1.032,0,1.12V2.4c0,0.088,0.072,0.16,0.16,0.16h15.68C15.928,2.56,16,2.488,16,2.4V1.12
			C16,1.032,15.928,0.96,15.84,0.96L15.84,0.96z M15.84,13.44H0.16C0.072,13.44,0,13.512,0,13.6v1.28c0,0.088,0.072,0.16,0.16,0.16
			h15.68c0.088,0,0.16-0.072,0.16-0.16V13.6C16,13.512,15.928,13.44,15.84,13.44L15.84,13.44z M15.84,7.2H0.16
			C0.072,7.2,0,7.272,0,7.36v1.28C0,8.728,0.072,8.8,0.16,8.8h15.68C15.928,8.8,16,8.728,16,8.64V7.36
			C16,7.272,15.928,7.2,15.84,7.2L15.84,7.2z M15.84,7.2"/>
	</g>
</g>
</svg>
