<?xml version="1.0" encoding="utf-8"?>
<!-- Generator: Adobe Illustrator 17.0.0, SVG Export Plug-In . SVG Version: 6.00 Build 0)  -->
<!DOCTYPE svg PUBLIC "-//W3C//DTD SVG 1.1//EN" "http://www.w3.org/Graphics/SVG/1.1/DTD/svg11.dtd">
<svg version="1.1" id="图层_1" xmlns="http://www.w3.org/2000/svg" xmlns:xlink="http://www.w3.org/1999/xlink" x="0px" y="0px"
	 width="16px" height="16px" viewBox="0 0 16 16" enable-background="new 0 0 16 16" xml:space="preserve">
<g>
	<g>
		<path d="M13.612,6.305l-3.597-0.523l-1.608-3.26C8.363,2.433,8.291,2.361,8.201,2.317C7.977,2.206,7.705,2.299,7.593,2.522
			l-1.608,3.26L2.388,6.305C2.289,6.32,2.198,6.366,2.129,6.437c-0.174,0.18-0.171,0.466,0.009,0.642L4.74,9.617L4.125,13.2
			c-0.017,0.098-0.001,0.2,0.045,0.288c0.116,0.221,0.391,0.307,0.612,0.19L8,11.985l3.218,1.692
			c0.088,0.047,0.19,0.062,0.288,0.045c0.246-0.042,0.412-0.276,0.37-0.523L11.26,9.617l2.603-2.538
			c0.071-0.069,0.118-0.16,0.132-0.259C14.033,6.572,13.86,6.342,13.612,6.305L13.612,6.305z M13.612,6.305"/>
	</g>
</g>
</svg>
