<?xml version="1.0" encoding="utf-8"?>
<!-- Generator: Adobe Illustrator 17.0.0, SVG Export Plug-In . SVG Version: 6.00 Build 0)  -->
<!DOCTYPE svg PUBLIC "-//W3C//DTD SVG 1.1//EN" "http://www.w3.org/Graphics/SVG/1.1/DTD/svg11.dtd">
<svg version="1.1" id="图层_1" xmlns="http://www.w3.org/2000/svg" xmlns:xlink="http://www.w3.org/1999/xlink" x="0px" y="0px"
	 width="16px" height="16px" viewBox="0 0 16 16" enable-background="new 0 0 16 16" xml:space="preserve">
<g>
	<g>
		<path d="M2.914,12.8c0.04,0,0.08-0.004,0.12-0.01l3.364-0.59c0.04-0.008,0.078-0.026,0.106-0.056l8.478-8.478
			c0.078-0.078,0.078-0.204,0-0.282l-3.324-3.326C11.62,0.02,11.57,0,11.516,0c-0.054,0-0.104,0.02-0.142,0.058L2.896,8.536
			c-0.03,0.03-0.048,0.066-0.056,0.106l-0.59,3.364c-0.038,0.222,0.03,0.438,0.188,0.596C2.57,12.73,2.736,12.8,2.914,12.8
			L2.914,12.8z M4.262,9.312l7.254-7.252l1.466,1.466l-7.254,7.252L3.95,11.092L4.262,9.312z M15.36,14.48H0.64
			C0.286,14.48,0,14.766,0,15.12v0.72C0,15.928,0.072,16,0.16,16h15.68c0.088,0,0.16-0.072,0.16-0.16v-0.72
			C16,14.766,15.714,14.48,15.36,14.48L15.36,14.48z M15.36,14.48"/>
	</g>
</g>
</svg>
