<?xml version="1.0" encoding="utf-8"?>
<!-- Generator: Adobe Illustrator 17.0.0, SVG Export Plug-In . SVG Version: 6.00 Build 0)  -->
<!DOCTYPE svg PUBLIC "-//W3C//DTD SVG 1.1//EN" "http://www.w3.org/Graphics/SVG/1.1/DTD/svg11.dtd">
<svg version="1.1" id="图层_1" xmlns="http://www.w3.org/2000/svg" xmlns:xlink="http://www.w3.org/1999/xlink" x="0px" y="0px"
	 width="16px" height="16px" viewBox="0 0 16 16" enable-background="new 0 0 16 16" xml:space="preserve">
<g>
	<g>
		<path d="M15.826,7.174H3.107l7.613-6.608c0.122-0.106,0.048-0.304-0.113-0.304H8.683c-0.085,0-0.165,0.03-0.228,0.085L0.24,7.474
			c-0.32,0.278-0.32,0.774,0,1.05l8.263,7.172c0.033,0.028,0.072,0.044,0.113,0.044h1.989c0.161,0,0.235-0.2,0.113-0.304
			L3.107,8.826h12.719C15.922,8.826,16,8.748,16,8.652V7.348C16,7.252,15.922,7.174,15.826,7.174L15.826,7.174z M15.826,7.174"/>
	</g>
</g>
</svg>
