<?xml version="1.0" encoding="utf-8"?>
<!-- Generator: Adobe Illustrator 17.0.0, SVG Export Plug-In . SVG Version: 6.00 Build 0)  -->
<!DOCTYPE svg PUBLIC "-//W3C//DTD SVG 1.1//EN" "http://www.w3.org/Graphics/SVG/1.1/DTD/svg11.dtd">
<svg version="1.1" id="图层_1" xmlns="http://www.w3.org/2000/svg" xmlns:xlink="http://www.w3.org/1999/xlink" x="0px" y="0px"
	 width="16px" height="16px" viewBox="0 0 16 16" enable-background="new 0 0 16 16" xml:space="preserve">
<path d="M15.429,1.714H0.571C0.255,1.714,0,1.97,0,2.286v11.429c0,0.316,0.255,0.571,0.571,0.571h14.857
	c0.316,0,0.571-0.255,0.571-0.571V2.286C16,1.97,15.745,1.714,15.429,1.714z M13.741,3.002L8,7.464L2.259,3.002H13.741z
	 M14.714,3.693V13H1.286V3.693L0.793,3.309l0,0l0.491,0.382l6.1,4.743c0.361,0.28,0.866,0.28,1.227,0L14.714,3.693l0.493-0.384
	l-0.701-0.901l0.001-0.001l0.702,0.902L14.714,3.693z"/>
</svg>
