<?xml version="1.0" encoding="utf-8"?>
<!-- Generator: Adobe Illustrator 17.0.0, SVG Export Plug-In . SVG Version: 6.00 Build 0)  -->
<!DOCTYPE svg PUBLIC "-//W3C//DTD SVG 1.1//EN" "http://www.w3.org/Graphics/SVG/1.1/DTD/svg11.dtd">
<svg version="1.1" id="图层_1" xmlns="http://www.w3.org/2000/svg" xmlns:xlink="http://www.w3.org/1999/xlink" x="0px" y="0px"
	 width="20px" height="20px" viewBox="0 0 20 20" enable-background="new 0 0 20 20" xml:space="preserve">
<g>
	<path d="M19.792,14.375h-1.406v-3.646h-7.5V8.333h6.198c0.229,0,0.417-0.188,0.417-0.417V1.042c0-0.229-0.188-0.417-0.417-0.417
		H2.917C2.687,0.625,2.5,0.813,2.5,1.042v6.875c0,0.229,0.187,0.417,0.417,0.417h6.198v2.396h-7.5v3.646H0.208
		C0.094,14.375,0,14.469,0,14.583v4.583c0,0.115,0.094,0.208,0.208,0.208h4.583C4.906,19.375,5,19.281,5,19.167v-4.583
		c0-0.115-0.094-0.208-0.208-0.208H3.385V12.5h5.729v1.875H7.708c-0.115,0-0.208,0.094-0.208,0.208v4.583
		c0,0.115,0.094,0.208,0.208,0.208h4.583c0.115,0,0.208-0.094,0.208-0.208v-4.583c0-0.115-0.094-0.208-0.208-0.208h-1.406V12.5
		h5.729v1.875h-1.406c-0.115,0-0.208,0.094-0.208,0.208v4.583c0,0.115,0.094,0.208,0.208,0.208h4.583
		c0.115,0,0.208-0.094,0.208-0.208v-4.583C20,14.469,19.906,14.375,19.792,14.375L19.792,14.375z M3.333,17.638
		c0,0.039-0.031,0.07-0.07,0.07H1.734c-0.039,0-0.07-0.031-0.07-0.07v-1.529c0-0.039,0.031-0.07,0.07-0.07h1.529
		c0.039,0,0.07,0.031,0.07,0.07V17.638z M10.833,17.638c0,0.039-0.031,0.07-0.07,0.07H9.234c-0.039,0-0.07-0.031-0.07-0.07v-1.529
		c0-0.039,0.031-0.07,0.07-0.07h1.529c0.039,0,0.07,0.031,0.07,0.07V17.638z M4.167,6.667V2.292h11.667v4.375H4.167z M18.333,17.638
		c0,0.039-0.031,0.07-0.07,0.07h-1.529c-0.039,0-0.07-0.031-0.07-0.07v-1.529c0-0.039,0.031-0.07,0.07-0.07h1.529
		c0.039,0,0.07,0.031,0.07,0.07V17.638z M18.333,17.638"/>
	<path d="M6.042,4.479c0,0.575,0.466,1.042,1.042,1.042c0.575,0,1.042-0.466,1.042-1.042c0-0.575-0.466-1.042-1.042-1.042
		C6.508,3.437,6.042,3.904,6.042,4.479L6.042,4.479z M6.042,4.479"/>
</g>
</svg>
